<?xml version="1.0" encoding="utf-8"?>
<!-- Generator: Adobe Illustrator 16.0.0, SVG Export Plug-In . SVG Version: 6.00 Build 0)  -->
<!DOCTYPE svg PUBLIC "-//W3C//DTD SVG 1.1//EN" "http://www.w3.org/Graphics/SVG/1.1/DTD/svg11.dtd">
<svg version="1.1" id="Layer_1" xmlns="http://www.w3.org/2000/svg" xmlns:xlink="http://www.w3.org/1999/xlink" x="0px" y="0px"
	 width="184px" height="42px" viewBox="0 0 184 42" enable-background="new 0 0 184 42" xml:space="preserve">
<path fill="#231F20" d="M14.266,18.255c-0.719-0.844-1.597-1.505-2.638-1.978c-1.04-0.469-2.231-0.704-3.57-0.704
	c-1.075,0-2.025,0.141-2.852,0.422c-0.823,0.281-1.441,0.554-1.847,0.814V6.957L0.022,7.522v26.309
	c0.766,0.213,1.747,0.422,2.943,0.636c1.194,0.209,2.571,0.32,4.125,0.32c1.434,0,2.725-0.226,3.875-0.674
	c1.146-0.448,2.127-1.08,2.94-1.909c0.813-0.821,1.44-1.828,1.882-3.018c0.443-1.188,0.664-2.524,0.664-4.007
	c0-1.411-0.185-2.707-0.556-3.883C15.526,20.117,14.981,19.105,14.266,18.255z M11.359,30.142c-1.075,1.163-2.51,1.747-4.304,1.747
	c-0.909,0-1.668-0.041-2.279-0.123c-0.608-0.083-1.081-0.17-1.417-0.268V19.882c0.406-0.328,0.992-0.649,1.759-0.955
	c0.765-0.304,1.6-0.459,2.51-0.459c0.955,0,1.775,0.172,2.457,0.512c0.684,0.345,1.24,0.813,1.669,1.413
	c0.43,0.601,0.741,1.314,0.932,2.139c0.191,0.821,0.288,1.706,0.288,2.646C12.974,27.319,12.436,28.975,11.359,30.142z
	 M28.869,15.802c-0.359-0.058-0.723-0.104-1.094-0.138c-0.371-0.038-0.699-0.055-0.986-0.055c-1.458,0-2.774,0.124-3.946,0.371
	c-1.172,0.248-2.151,0.511-2.942,0.793v17.588h3.337V18.927c0.191-0.045,0.59-0.134,1.2-0.263c0.61-0.13,1.225-0.196,1.848-0.196
	c0.957,0,1.739,0.065,2.348,0.196c0.611,0.129,1.047,0.241,1.31,0.333l0.576-2.856c-0.146-0.049-0.365-0.104-0.665-0.161
	C29.558,15.922,29.229,15.862,28.869,15.802z M44.606,17.498c-0.562-0.622-1.304-1.104-2.225-1.449
	c-0.921-0.339-2.052-0.511-3.39-0.511c-1.171,0-2.259,0.089-3.265,0.264c-1.004,0.178-1.72,0.361-2.152,0.548l0.395,2.722
	c0.408-0.167,1.023-0.325,1.848-0.479c0.824-0.154,1.786-0.229,2.888-0.229c0.861,0,1.561,0.121,2.099,0.369
	c0.54,0.247,0.963,0.58,1.272,0.987c0.312,0.415,0.528,0.886,0.647,1.414c0.12,0.531,0.18,1.066,0.18,1.607v0.917
	c-0.097-0.023-0.264-0.058-0.502-0.104c-0.24-0.045-0.521-0.101-0.845-0.161c-0.322-0.056-0.665-0.103-1.021-0.135
	c-0.358-0.038-0.708-0.055-1.041-0.055c-1.053,0-2.057,0.105-3.013,0.317c-0.957,0.214-1.793,0.542-2.512,0.989
	c-0.715,0.448-1.286,1.035-1.703,1.765c-0.418,0.73-0.627,1.601-0.627,2.614c0,1.058,0.179,1.967,0.537,2.72
	c0.358,0.753,0.86,1.357,1.507,1.818c0.646,0.459,1.41,0.795,2.295,1.004c0.885,0.215,1.854,0.321,2.906,0.321
	c0.741,0,1.489-0.03,2.242-0.09c0.753-0.057,1.452-0.121,2.099-0.193c0.646-0.072,1.226-0.146,1.739-0.23
	c0.515-0.083,0.914-0.146,1.202-0.192v-11.48c0-1.034-0.119-1.982-0.358-2.845C45.567,18.865,45.167,18.124,44.606,17.498z
	 M42.902,31.745c-0.407,0.098-0.915,0.16-1.525,0.195c-0.611,0.035-1.31,0.053-2.099,0.053c-1.315,0-2.354-0.228-3.121-0.688
	c-0.766-0.457-1.147-1.276-1.147-2.454c0-0.636,0.156-1.146,0.466-1.538c0.311-0.385,0.7-0.692,1.166-0.917
	c0.468-0.221,0.981-0.369,1.544-0.438c0.561-0.071,1.093-0.109,1.596-0.109c0.766,0,1.416,0.044,1.954,0.126
	c0.539,0.081,0.927,0.18,1.167,0.299V31.745z M63.663,17.957c-0.585-0.742-1.37-1.315-2.348-1.729
	c-0.98-0.411-2.213-0.618-3.697-0.618c-1.649,0-3.109,0.106-4.375,0.318c-1.269,0.213-2.284,0.412-3.05,0.598v17.835h3.337V18.858
	c0.119-0.022,0.316-0.059,0.592-0.109c0.273-0.045,0.584-0.085,0.931-0.121c0.347-0.035,0.711-0.065,1.095-0.088
	c0.383-0.023,0.753-0.038,1.112-0.038c0.886,0,1.627,0.114,2.224,0.338c0.599,0.224,1.077,0.581,1.435,1.077
	c0.358,0.492,0.615,1.142,0.772,1.941c0.156,0.799,0.232,1.765,0.232,2.897v9.605h3.336V24.048c0-1.247-0.119-2.391-0.358-3.424
	C64.662,19.589,64.249,18.697,63.663,17.957z M82.582,16.812c-0.407-0.261-1.025-0.533-1.849-0.814
	c-0.825-0.281-1.776-0.422-2.851-0.422c-1.34,0-2.529,0.235-3.569,0.704c-1.041,0.472-1.919,1.133-2.637,1.978
	c-0.718,0.85-1.262,1.862-1.634,3.041c-0.371,1.176-0.557,2.472-0.557,3.883c0,1.484,0.222,2.82,0.665,4.008
	c0.443,1.19,1.07,2.198,1.883,3.018c0.813,0.828,1.794,1.461,2.942,1.909c1.147,0.448,2.44,0.674,3.875,0.674
	c1.553,0,2.928-0.112,4.125-0.321c1.195-0.213,2.176-0.422,2.941-0.635V6.957l-3.335,0.565L82.582,16.812L82.582,16.812z
	 M82.582,31.498c-0.336,0.098-0.807,0.185-1.418,0.268c-0.61,0.082-1.369,0.123-2.277,0.123c-1.794,0-3.229-0.584-4.305-1.747
	c-1.076-1.167-1.614-2.823-1.614-4.963c0-0.94,0.097-1.825,0.288-2.646c0.191-0.825,0.502-1.538,0.933-2.139
	c0.431-0.6,0.987-1.068,1.668-1.413c0.681-0.339,1.5-0.512,2.456-0.512c0.909,0,1.746,0.155,2.51,0.459
	c0.768,0.305,1.353,0.627,1.761,0.955L82.582,31.498L82.582,31.498z M100.714,23.486c-0.671,2.422-1.46,4.871-2.369,7.344
	c-0.573-1.198-1.123-2.448-1.649-3.746c-0.527-1.292-1.018-2.586-1.472-3.881c-0.453-1.297-0.866-2.555-1.238-3.78
	c-0.37-1.223-0.688-2.365-0.95-3.425h-3.588c0.861,3.248,1.943,6.457,3.248,9.622c1.302,3.167,2.708,6.162,4.215,8.989
	c-0.597,1.292-1.268,2.229-2.008,2.808c-0.742,0.576-1.771,0.864-3.087,0.864c-0.406,0-0.817-0.052-1.236-0.161
	c-0.418-0.104-0.76-0.215-1.022-0.333l-0.61,2.65c0.095,0.045,0.256,0.102,0.484,0.176c0.226,0.073,0.477,0.135,0.752,0.192
	c0.275,0.061,0.558,0.109,0.844,0.144C91.314,40.982,91.589,41,91.853,41c0.98,0,1.861-0.118,2.636-0.351
	c0.775-0.236,1.478-0.604,2.1-1.098c0.622-0.494,1.188-1.124,1.703-1.888c0.513-0.767,1.01-1.678,1.489-2.739
	c1.22-2.775,2.356-5.76,3.408-8.949c1.053-3.189,2.008-6.518,2.869-9.978h-3.442C102.017,18.563,101.384,21.06,100.714,23.486z
	 M134.404,17.727c-0.573-0.752-1.346-1.333-2.314-1.748c-0.969-0.411-2.206-0.618-3.713-0.618c-0.839,0-1.752,0.153-2.745,0.458
	c-0.992,0.31-1.871,0.73-2.636,1.271c-0.552-0.469-1.251-0.876-2.099-1.218c-0.849-0.342-1.954-0.511-3.318-0.511
	c-0.694,0-1.4,0.031-2.115,0.089c-0.719,0.059-1.418,0.14-2.099,0.248c-0.682,0.104-1.328,0.224-1.937,0.351
	c-0.61,0.132-1.144,0.255-1.597,0.375v17.938h5.344V20.023c0.335-0.046,0.683-0.09,1.042-0.124c0.357-0.036,0.704-0.052,1.04-0.052
	c1.076,0,1.836,0.351,2.278,1.058c0.442,0.706,0.664,1.907,0.664,3.604v9.852h5.345V24.228c0-0.685-0.025-1.328-0.073-1.926
	c-0.049-0.601-0.155-1.173-0.322-1.713c0.336-0.213,0.758-0.391,1.273-0.528c0.514-0.143,0.914-0.213,1.201-0.213
	c1.076,0,1.835,0.351,2.278,1.058c0.444,0.706,0.663,1.907,0.663,3.604v9.852h5.345V23.872c0-1.271-0.107-2.423-0.322-3.461
	C135.372,19.376,134.977,18.479,134.404,17.727z M140.122,34.361h5.345V15.784h-5.345V34.361z M165.101,17.727
	c-0.622-0.752-1.467-1.333-2.529-1.748c-1.066-0.411-2.398-0.618-4.001-0.618c-1.578,0-3.084,0.113-4.52,0.336
	c-1.434,0.224-2.606,0.464-3.516,0.725v17.938h5.346V20.023c0.334-0.046,0.718-0.09,1.148-0.124
	c0.428-0.036,0.836-0.052,1.218-0.052c1.243,0,2.094,0.351,2.548,1.058c0.454,0.706,0.681,1.907,0.681,3.604v9.852h5.345V23.872
	c0-1.271-0.132-2.423-0.396-3.461C166.165,19.376,165.722,18.479,165.101,17.727z M183.251,29.732
	c-0.502,0.191-1.059,0.336-1.667,0.444c-0.611,0.103-1.203,0.158-1.777,0.158c-1.197,0-1.991-0.331-2.384-0.99
	c-0.397-0.658-0.594-1.544-0.594-2.646v-6.536h6.42v-4.379h-6.42v-5.471l-5.345,0.847v15.607c0,1.201,0.114,2.296,0.342,3.284
	c0.226,0.989,0.627,1.831,1.201,2.527c0.573,0.692,1.341,1.235,2.295,1.621c0.957,0.389,2.165,0.587,3.623,0.587
	c1.149,0,2.116-0.1,2.906-0.286c0.791-0.186,1.508-0.41,2.152-0.669L183.251,29.732z M150.597,0h-1.979
	c-4.693,0-8.497,3.744-8.497,8.365v1.948h1.979c4.693,0,8.497-3.746,8.497-8.366V0z"/>
</svg>
